<svg xmlns="http://www.w3.org/2000/svg" xmlns:xlink="http://www.w3.org/1999/xlink" id="Capa_1" x="0px" y="0px" viewBox="0 0 56.6 56.6" style="enable-background:new 0 0 56.6 56.6;" xml:space="preserve"> <style type="text/css"> .st0{fill:#F0B500;} </style> <g id="XMLID_215_"> <path id="XMLID_249_" class="st0" d="M28.3,41.2l-2.8-2.3c-0.5,0.7-1,1.3-1.6,1.9c0.5,2.3,1.6,4.4,3.4,5.9l1.1,0.9l1.1-0.9 c1.8-1.5,2.9-3.6,3.4-5.8c-0.6-0.6-1.1-1.2-1.6-1.9L28.3,41.2z"></path> <path id="XMLID_248_" class="st0" d="M27,36.9l1.3,1.1l1.3-1.1c2.2-1.8,3.7-4.4,4.1-7.2c-0.6-0.7-1.1-1.4-1.6-2.1l-3.8,3.4 l-3.8-3.4c-0.4,0.8-1,1.5-1.6,2.1C23.3,32.5,24.7,35,27,36.9z"></path> <path id="XMLID_247_" class="st0" d="M17.8,30.7c2.1-1.1,3.7-2.8,4.8-4.8L20.5,24h-7.7c0.2,2.2,1,4.3,2.4,6.1l1.1,1.3L17.8,30.7z"></path> <path id="XMLID_246_" class="st0" d="M18.9,32.9l-3.1,1.6c0.1,2,0.8,4,2.1,5.6l0.9,1.1l1.2-0.7c1.5-0.8,2.8-2,3.7-3.5 c-1.3-1.6-2.3-3.4-2.9-5.4C20.2,32.1,19.6,32.5,18.9,32.9z"></path> <path id="XMLID_243_" class="st0" d="M35.8,31.7c-0.5,2-1.5,3.8-2.9,5.4c0.9,1.4,2.2,2.7,3.7,3.5l1.2,0.7l0.9-1.1 c1.3-1.6,2-3.6,2.1-5.6l-3.1-1.6C37.1,32.5,36.4,32.1,35.8,31.7z"></path> <path id="XMLID_242_" class="st0" d="M34.1,25.8c1.1,2.1,2.7,3.8,4.8,4.8l1.5,0.8l1.1-1.3c1.4-1.8,2.2-3.9,2.4-6.1h-7.7L34.1,25.8z "></path> <path id="XMLID_217_" class="st0" d="M28.3,0C12.7,0,0,12.7,0,28.3C0,44,12.7,56.6,28.3,56.6S56.6,44,56.6,28.3 C56.6,12.7,44,0,28.3,0z M46.5,24c-0.2,2.8-1.2,5.5-3,7.7L43.2,32c0.1,0.2,0.2,0.4,0.2,0.7c0.3,3.3-0.6,6.4-2.6,9l-2.2,2.8 l-3.1-1.7c-0.2-0.1-0.4-0.2-0.6-0.4c-0.7,2.4-2,4.5-3.9,6.1l-2.7,2.3l-2.7-2.3c-1.9-1.6-3.2-3.7-3.9-6.1c-0.2,0.1-0.4,0.2-0.6,0.4 L18,44.5l-2.2-2.8c-2-2.5-2.9-5.7-2.6-9c0-0.2,0.1-0.5,0.2-0.7l-0.3-0.3c-1.8-2.2-2.8-4.9-3-7.7H7.8v-1.3c0-7,6.5-10.6,19.3-10.9 V5.8h2.5v6.1c12.8,0.2,19.3,3.9,19.3,10.9V24H46.5z"></path> <path id="XMLID_216_" class="st0" d="M28.3,14.4c-11.2,0-17.1,2.3-17.9,7.1h11l6.9,6.1l6.9-6.1h11C45.4,16.7,39.5,14.4,28.3,14.4z"></path> </g> </svg>